HIERARCHY
ROOT Hips
{
	OFFSET -0.001795 -0.223333 0.028219
	CHANNELS 6 Xposition Yposition Zposition Zrotation Yrotation Xrotation 
	JOINT LeftUpLeg
	{
		OFFSET 0.069520 -0.091406 -0.006815
		CHANNELS 3 Zrotation Yrotation Xrotation
		JOINT LeftLeg
		{
			OFFSET 0.034277 -0.375199 -0.004496
			CHANNELS 3 Zrotation Yrotation Xrotation
			JOINT LeftFoot
			{
				OFFSET -0.013596 -0.397961 -0.043693
				CHANNELS 3 Zrotation Yrotation Xrotation
				JOINT LeftToe
				{
					OFFSET 0.026358 -0.055791 0.119288
					CHANNELS 3 Zrotation Yrotation Xrotation
					End Site
					{
						OFFSET 0.000000 0.000000 0.000000
					}
				}
			}
		}
	}
	JOINT RightUpLeg
	{
		OFFSET -0.067670 -0.090522 -0.004320
		CHANNELS 3 Zrotation Yrotation Xrotation
		JOINT RightLeg
		{
			OFFSET -0.038290 -0.382569 -0.008850
			CHANNELS 3 Zrotation Yrotation Xrotation
			JOINT RightFoot
			{
				OFFSET 0.015774 -0.398415 -0.042312
				CHANNELS 3 Zrotation Yrotation Xrotation
				JOINT RightToe
				{
					OFFSET -0.025372 -0.048144 0.123348
					CHANNELS 3 Zrotation Yrotation Xrotation
					End Site
					{
						OFFSET 0.000000 0.000000 0.000000
					}
				}
			}
		}
	}
	JOINT Spine
	{
		OFFSET -0.002533 0.108963 -0.026696
		CHANNELS 3 Zrotation Yrotation Xrotation
		JOINT Spine1
		{
			OFFSET 0.005487 0.135180 0.001092
			CHANNELS 3 Zrotation Yrotation Xrotation
			JOINT Spine2
			{
				OFFSET 0.001457 0.052922 0.025425
				CHANNELS 3 Zrotation Yrotation Xrotation
				JOINT Neck
				{
					OFFSET -0.002778 0.213870 -0.042857
					CHANNELS 3 Zrotation Yrotation Xrotation
					JOINT Head
					{
						OFFSET 0.005152 0.064970 0.051349
						CHANNELS 3 Zrotation Yrotation Xrotation
						End Site
						{
							OFFSET 0.000000 0.000000 0.000000
						}
					}
				}
				JOINT LeftShoulder
				{
					OFFSET 0.078845 0.121749 -0.034090
					CHANNELS 3 Zrotation Yrotation Xrotation
					JOINT LeftArm
					{
						OFFSET 0.090977 0.030469 -0.008868
						CHANNELS 3 Zrotation Yrotation Xrotation
						JOINT LeftForeArm
						{
							OFFSET 0.259612 -0.012772 -0.027456
							CHANNELS 3 Zrotation Yrotation Xrotation
							JOINT LeftHand
							{
								OFFSET 0.249234 0.008986 -0.001171
								CHANNELS 3 Zrotation Yrotation Xrotation
								End Site
								{
									OFFSET 0.000000 0.000000 0.000000
								}
							}
						}
					}
				}
				JOINT RightShoulder
				{
					OFFSET -0.081759 0.118833 -0.038615
					CHANNELS 3 Zrotation Yrotation Xrotation
					JOINT RightArm
					{
						OFFSET -0.096012 0.032551 -0.009143
						CHANNELS 3 Zrotation Yrotation Xrotation
						JOINT RightForeArm
						{
							OFFSET -0.253742 -0.013329 -0.021401
							CHANNELS 3 Zrotation Yrotation Xrotation
							JOINT RightHand
							{
								OFFSET -0.255298 0.007772 -0.005559
								CHANNELS 3 Zrotation Yrotation Xrotation
								End Site
								{
									OFFSET 0.000000 0.000000 0.000000
								}
							}
						}
					}
				}
			}
		}
	}
}
MOTION
Frames: 12
Frame Time: 0.050000
-0.101502 0.933295 0.695053 -0.747691 -4.336630 -1.466096 4.143555 -0.033060 -0.669477 -3.654668 0.439115 -0.371065 3.951445 9.539749 5.642436 0.000000 0.000000 0.000000 0.875699 0.381221 -3.803441 1.844572 0.045534 7.921274 -6.908798 -17.430423 5.172617 0.000000 0.000000 0.000000 6.346045 -0.721215 7.619209 0.288251 -0.198033 3.909744 -7.749959 5.615468 5.758087 8.689828 -3.792881 -15.440537 0.000000 0.000000 0.000000 -18.236165 -18.203060 6.531220 -41.665402 -24.941729 3.674887 2.692804 -83.469345 -0.413676 0.000000 0.000000 0.000000 17.932480 8.657445 4.261144 48.233864 25.410642 5.015249 -11.276972 84.981440 -3.981884 0.000000 0.000000 0.000000 
-0.101656 0.933447 0.694599 -0.716808 -4.349225 -1.356042 3.978662 -0.040451 -0.751978 -3.402133 0.409545 -0.497143 3.957181 9.569627 5.755603 0.000000 0.000000 0.000000 0.879955 0.415110 -4.120016 1.802556 0.062362 8.210062 -6.919313 -17.461581 5.231157 0.000000 0.000000 0.000000 6.357083 -0.739014 7.781013 0.246542 -0.172576 3.664836 -7.609910 5.624469 5.925649 8.446874 -3.625343 -15.555824 0.000000 0.000000 0.000000 -18.172126 -18.042635 6.465518 -41.994491 -24.411653 3.506805 -1.761288 -83.306352 3.585332 0.000000 0.000000 0.000000 18.106975 8.476811 4.169644 48.597383 24.949938 4.859130 -11.413397 84.987996 -4.088484 0.000000 0.000000 0.000000 
-0.101484 0.933643 0.694313 -0.661461 -4.302577 -1.204707 3.764988 -0.058006 -0.978357 -3.148721 0.379198 -0.448788 3.949155 9.570048 5.836933 0.000000 0.000000 0.000000 0.698830 0.439038 -4.363524 2.001654 0.031045 8.301876 -6.932105 -17.500293 5.319930 0.000000 0.000000 0.000000 6.457214 -0.756358 7.855498 0.230207 -0.162493 3.524983 -7.497460 5.570167 5.968107 8.285992 -3.504631 -15.691449 0.000000 0.000000 0.000000 -18.334246 -17.960387 6.447146 -42.205224 -24.154887 3.437848 -4.861351 -83.063724 6.351927 0.000000 0.000000 0.000000 18.271934 8.405733 4.129961 48.679573 24.459459 4.654692 -10.918224 85.435416 -3.674502 0.000000 0.000000 0.000000 
-0.101166 0.933764 0.694125 -0.569779 -4.173149 -1.096212 3.597217 -0.073302 -1.165438 -3.061806 0.367803 -0.401198 3.896693 9.488132 5.890765 0.000000 0.000000 0.000000 0.508806 0.462833 -4.609943 2.137194 0.012363 8.503451 -6.991164 -17.629188 5.389679 0.000000 0.000000 0.000000 6.570863 -0.759661 7.770611 0.163919 -0.128436 3.447734 -7.463506 5.501118 6.060821 7.854690 -3.219128 -15.789121 0.000000 0.000000 0.000000 -18.498961 -17.977281 6.474228 -42.431382 -24.022944 3.409447 -9.779953 -83.329493 10.790438 0.000000 0.000000 0.000000 18.337819 8.189861 4.011673 48.572902 23.544501 4.241730 -8.745265 86.839428 -1.720705 0.000000 0.000000 0.000000 
-0.100803 0.933803 0.694079 -0.507900 -4.253071 -0.934165 3.381599 -0.095402 -1.460456 -2.848954 0.341693 -0.191976 3.962745 9.604140 5.893765 0.000000 0.000000 0.000000 0.402108 0.482256 -4.814017 2.154557 0.011260 8.519489 -6.961277 -17.571966 5.389013 0.000000 0.000000 0.000000 6.767010 -0.753255 7.528427 0.118859 -0.105131 3.581520 -7.637588 5.518549 5.900770 7.468697 -2.978436 -15.733521 0.000000 0.000000 0.000000 -18.459563 -17.937813 6.440581 -42.630798 -24.213538 3.513549 -11.280138 -83.755183 12.196003 0.000000 0.000000 0.000000 18.280413 7.869208 3.835575 48.492788 22.477371 3.795755 15.015484 88.496577 21.363575 0.000000 0.000000 0.000000 
-0.100536 0.933791 0.694216 -0.462669 -4.065662 -0.836496 3.200072 -0.118250 -1.743940 -2.640597 0.313108 0.086199 3.914615 9.506562 5.812848 0.000000 0.000000 0.000000 0.176291 0.494361 -4.961660 2.451232 -0.039829 8.618273 -7.037375 -17.730917 5.433155 0.000000 0.000000 0.000000 7.029850 -0.775075 7.533684 0.015754 -0.049798 3.230643 -7.769695 5.531894 6.299796 7.255413 -2.815941 -15.894612 0.000000 0.000000 0.000000 -18.916218 -18.244432 6.609772 -42.398294 -24.340187 3.516429 -11.507535 -84.548232 12.588111 0.000000 0.000000 0.000000 18.534106 7.337336 3.595984 48.096140 21.300740 3.200558 101.622393 88.538900 107.184465 0.000000 0.000000 0.000000 
-0.100324 0.933442 0.694443 -0.456714 -3.842739 -0.727967 3.216359 -0.131380 -1.916476 -2.699506 0.318211 0.153710 3.843102 9.354562 5.656919 0.000000 0.000000 0.000000 0.113960 0.499556 -5.019323 2.545108 -0.060810 8.566806 -7.142490 -17.936758 5.373225 0.000000 0.000000 0.000000 7.273602 -0.772166 7.297646 -0.039846 -0.026866 3.497396 -8.035348 5.356278 6.202571 7.053452 -2.693804 -15.852751 0.000000 0.000000 0.000000 -18.951283 -18.274998 6.626446 -42.545061 -24.828800 3.715149 -8.285095 -85.126866 9.754771 0.000000 0.000000 0.000000 18.094741 6.768533 3.256763 48.388530 19.989451 2.724212 127.190157 86.706891 131.688596 0.000000 0.000000 0.000000 
-0.100070 0.933238 0.694564 -0.451575 -3.688344 -0.644427 3.034019 -0.145328 -2.061422 -2.411301 0.281728 0.226141 3.810148 9.277320 5.542708 0.000000 0.000000 0.000000 0.090149 0.504052 -5.065320 2.560996 -0.067061 8.520522 -7.214514 -18.080179 5.349847 0.000000 0.000000 0.000000 7.440532 -0.771324 7.147536 -0.136256 0.019963 3.618951 -8.216912 5.294836 6.226168 6.994670 -2.645490 -15.890043 0.000000 0.000000 0.000000 -19.376716 -18.637250 6.825173 -42.649956 -24.855208 3.753507 -2.730071 -85.788285 4.701679 0.000000 0.000000 0.000000 17.928060 6.353306 3.037269 48.263719 19.011598 2.310778 130.627751 85.765810 134.609939 0.000000 0.000000 0.000000 
-0.099718 0.932973 0.694344 -0.428875 -3.643595 -0.516643 3.031575 -0.155223 -2.192096 -2.491652 0.291728 0.165056 3.803326 9.255073 5.486851 0.000000 0.000000 0.000000 0.032217 0.521148 -5.243263 2.585232 -0.070692 8.564943 -7.249190 -18.146879 5.290234 0.000000 0.000000 0.000000 7.638182 -0.779238 7.064918 -0.340846 0.127676 3.450598 -8.319195 5.080962 6.355688 6.844373 -2.543402 -16.071493 0.000000 0.000000 0.000000 -19.924943 -18.634244 6.908728 -42.715287 -25.336505 3.921450 3.836228 -85.790451 -1.283152 0.000000 0.000000 0.000000 17.531258 6.253332 2.924029 48.323964 17.938754 1.891137 132.063157 84.834520 135.363976 0.000000 0.000000 0.000000 
-0.099277 0.932961 0.693644 -0.428169 -3.611767 -0.270165 2.936826 -0.181406 -2.530978 -2.371588 0.276645 0.187961 3.807581 9.269394 5.520810 0.000000 0.000000 0.000000 -0.034671 0.542745 -5.468901 2.653765 -0.086886 8.395385 -7.256030 -18.169810 5.353212 0.000000 0.000000 0.000000 7.695018 -0.762276 6.798783 -0.383761 0.148583 3.594994 -8.569521 5.167547 6.381304 7.006704 -2.605051 -16.213322 0.000000 0.000000 0.000000 -20.052234 -19.184609 7.179712 -43.187404 -25.948782 4.214538 14.815976 -85.502083 -11.464789 0.000000 0.000000 0.000000 17.132166 6.113832 2.871331 48.353330 17.707171 1.804614 137.518735 84.837844 141.329573 0.000000 0.000000 0.000000 
-0.098903 0.932764 0.692665 -0.481538 -3.670523 -0.240944 2.810712 -0.188305 -2.598636 -2.083769 0.242811 0.154071 3.856634 9.348716 5.477955 0.000000 0.000000 0.000000 0.043938 0.540070 -5.428137 2.574120 -0.078510 8.145924 -7.225271 -18.105809 5.330204 0.000000 0.000000 0.000000 7.806923 -0.759014 6.697813 -0.440149 0.179538 3.490059 -8.730061 5.218890 6.598961 7.122820 -2.671777 -16.252320 0.000000 0.000000 0.000000 -20.175895 -19.786771 7.521595 -43.455720 -26.418546 4.408634 22.387609 -85.031999 -18.311800 0.000000 0.000000 0.000000 16.806535 6.413097 3.030177 48.009288 17.883228 1.835062 147.088227 85.632922 152.112165 0.000000 0.000000 0.000000 
-0.098736 0.932745 0.691705 -0.541812 -3.840802 -0.290121 2.781926 -0.173787 -2.392519 -1.934490 0.230919 -0.186066 3.914930 9.467205 5.567914 0.000000 0.000000 0.000000 0.103690 0.518235 -5.205826 2.553061 -0.083430 7.710759 -7.125567 -17.903293 5.333460 0.000000 0.000000 0.000000 7.705134 -0.754725 6.742055 -0.447451 0.182864 3.860196 -8.860241 5.319094 6.392732 7.416345 -2.885591 -16.006521 0.000000 0.000000 0.000000 -19.975313 -20.157054 7.687947 -43.776806 -26.988378 4.680701 29.110044 -84.588707 -24.378112 0.000000 0.000000 0.000000 16.476300 6.669563 3.158962 47.649288 18.496116 2.076221 162.483526 86.721548 168.929045 0.000000 0.000000 0.000000 
